PathFileType	4	(X/Y/Z)	 s02c0103.trc
DataRate	CameraRate	NumFrames	NumMarkers	Units	OrigDataRate	OrigDataStartFrame	OrigNumFrames
200	200	5	50	mm	200	1251	2000
Frame#	Time	racr			lacr			c7			jug			rlel			rdr			llel			ldr			s2			lic			ric			lasi			rasi			rpsi			lpsi			rgt			lgt			rth1			rth2			rth3			rth4			rlfc			rmfc			rsh1			rsh2			rsh3			rsh4			rlmal			rmmal			rtoe			rmt5			rmt1			lth1			lth2			lth4			lth3			llfc			lmfc			lsh1			lsh2			lsh3			lsh4			llmal			lmmal			lcal			ltoe			lmt5			SBIKE			LBIKE			RBIKE			
		X1	Y1	Z1	X2	Y2	Z2	X3	Y3	Z3	X4	Y4	Z4	X5	Y5	Z5	X6	Y6	Z6	X7	Y7	Z7	X8	Y8	Z8	X9	Y9	Z9	X10	Y10	Z10	X11	Y11	Z11	X12	Y12	Z12	X13	Y13	Z13	X14	Y14	Z14	X15	Y15	Z15	X16	Y16	Z16	X17	Y17	Z17	X18	Y18	Z18	X19	Y19	Z19	X20	Y20	Z20	X21	Y21	Z21	X22	Y22	Z22	X23	Y23	Z23	X24	Y24	Z24	X25	Y25	Z25	X26	Y26	Z26	X27	Y27	Z27	X28	Y28	Z28	X29	Y29	Z29	X30	Y30	Z30	X31	Y31	Z31	X32	Y32	Z32	X33	Y33	Z33	X34	Y34	Z34	X35	Y35	Z35	X36	Y36	Z36	X37	Y37	Z37	X38	Y38	Z38	X39	Y39	Z39	X40	Y40	Z40	X41	Y41	Z41	X42	Y42	Z42	X43	Y43	Z43	X44	Y44	Z44	X45	Y45	Z45	X46	Y46	Z46	X47	Y47	Z47	X48	Y48	Z48	X49	Y49	Z49	X50	Y50	Z50	
1251	6.2550	520.232115	1262.791315	-127.858398	560.169774	1254.002969	-447.129591	526.370901	1293.574793	-292.833900	463.851050	1166.392035	-290.997636	564.967385	1005.413642	-42.179857	709.014162	850.507878	-112.539893	550.881275	1005.219819	-592.566414	707.138239	851.969787	-512.007983	15.751012	1159.005105	-249.437887	149.165687	1109.834456	-472.461437	119.819189	1140.303850	-184.605594	188.158644	1076.843145	-437.517338	169.413806	1120.930888	-218.854047	20.889356	1164.142652	-303.478685	37.794557	1165.769381	-390.298959	100.202029	1079.959200	-138.807350	96.176425	1013.346953	-494.920918	184.766487	1072.499803	-134.555475	272.875656	1075.726211	-135.949859	348.151812	1046.598278	-106.081855	281.189068	1098.217184	-165.907596	483.404270	982.259069	-129.991188	485.360770	957.122244	-245.129710	463.022685	874.318269	-118.027563	434.628500	791.723969	-134.952981	372.805004	731.710248	-133.095864	449.016244	786.281038	-172.267114	295.299339	630.084613	-140.214375	312.473308	648.190287	-219.871855	449.820813	464.848616	-189.447071	351.210803	509.530992	-127.919334	378.448515	506.595211	-235.080256	186.286258	903.249680	-514.312388	242.991675	836.775240	-511.649743	273.105567	851.403958	-495.730090	256.875890	748.666624	-508.578910	301.240919	661.620083	-481.919067	298.801157	630.791955	-381.449939	279.025335	563.517950	-506.926907	283.054949	478.278933	-494.356055	240.866509	397.796246	-498.461404	300.735317	476.198828	-457.338909	208.682072	298.012584	-487.666025	220.359555	292.932923	-410.850859	134.649624	282.700077	-450.649674	374.343326	121.631409	-432.296870	276.740889	155.727938	-502.407066	-126.510627	872.249287	-308.205067	37.198803	86.651589	-514.171859	33.659736	83.199951	-114.488929	
1252	6.2600	519.942712	1262.744494	-127.210221	561.182086	1252.755935	-445.811586	526.687171	1292.575018	-291.952329	464.759488	1165.113327	-289.691213	562.349773	1005.030008	-41.590610	708.204432	851.509745	-112.156743	551.444139	1005.112159	-592.805070	707.003301	851.652941	-512.357292	15.572294	1159.103680	-249.947815	149.072457	1110.172800	-473.106659	119.678789	1142.064362	-185.123455	187.859777	1077.041007	-438.121203	168.879411	1122.361666	-219.830630	20.356729	1165.500546	-304.366954	37.347472	1166.811651	-391.098490	99.700145	1081.869339	-139.586792	96.053509	1013.585038	-495.398008	184.539703	1073.017485	-135.157512	272.620760	1075.339518	-136.785925	347.655650	1045.040897	-106.800452	281.122672	1098.170240	-166.387435	480.963262	979.872762	-131.653887	483.194794	955.103806	-246.155459	463.877446	872.465126	-119.119510	436.907681	789.368125	-135.585547	376.261177	728.255657	-133.224718	451.259942	784.147814	-172.948267	300.089385	625.273137	-139.648026	316.677925	643.694798	-219.299087	460.114645	466.610496	-189.473651	359.850708	507.520660	-127.513509	386.456144	505.753369	-234.329803	186.835137	904.027729	-514.310779	244.144864	838.102435	-511.699438	274.146996	853.016655	-495.848421	258.802950	750.111538	-508.337844	303.872099	663.296765	-481.578973	301.546459	632.714049	-380.841727	280.055666	565.664127	-506.444318	281.712692	480.381169	-493.831074	237.314248	401.054335	-498.084489	299.175532	477.794975	-456.686989	202.120594	302.210053	-487.548876	213.814161	296.771734	-410.656259	127.663482	288.414118	-450.282363	363.819413	122.493529	-432.426178	266.800963	158.376813	-502.288705	-126.557402	872.247739	-308.132096	37.179401	86.699747	-514.167457	33.652731	83.222278	-114.456504	
1253	6.2650	519.576278	1262.457967	-126.616737	562.125675	1251.245021	-444.583802	526.988412	1291.441232	-290.974904	465.275665	1163.885157	-288.387463	559.949374	1004.580233	-40.850108	707.338471	852.397773	-111.572031	551.894449	1004.735878	-592.990088	706.950077	851.291582	-512.530029	15.389318	1159.186842	-250.461190	148.869366	1110.508195	-473.725754	119.456849	1143.591117	-185.779262	187.390681	1077.185465	-438.650183	168.776289	1124.483101	-220.622780	19.806483	1167.032582	-305.288436	37.038494	1167.989064	-391.891019	99.464429	1083.510090	-140.358952	95.917132	1013.837506	-495.919843	184.374810	1073.167695	-135.986488	272.469234	1074.390169	-137.811354	347.101245	1043.378868	-108.056698	281.196115	1097.332364	-167.153710	480.754000	977.201182	-132.463111	480.806490	952.544565	-246.917061	464.458255	869.005194	-119.894783	438.901737	785.427335	-136.124823	379.240422	723.427221	-133.357149	453.023379	780.413417	-173.553106	304.622155	619.304712	-139.313114	320.324777	637.922326	-218.770462	470.055028	468.085214	-189.490744	368.114478	504.650329	-127.040769	394.860803	504.762817	-234.597955	187.720535	905.015875	-514.314974	245.711759	839.720013	-511.502189	275.549449	855.022311	-495.888254	261.338505	751.908212	-507.920035	307.022253	665.436523	-481.091365	304.958089	635.068830	-380.178859	281.720636	568.286892	-505.814463	280.778279	483.016201	-493.183619	234.210226	404.949662	-497.729349	298.012071	479.881436	-455.969319	195.709360	307.112998	-487.293472	207.584557	301.166961	-410.447351	120.937355	294.638290	-449.865519	353.358515	123.971252	-432.479855	256.989056	161.743034	-502.107212	-126.576070	872.255683	-308.041721	37.168333	86.746339	-514.155015	33.674717	83.217780	-114.422999	
1254	6.2700	519.214096	1261.844497	-126.187091	563.075350	1249.617892	-443.591682	527.148247	1290.147139	-290.281972	466.075273	1162.292714	-287.431350	557.372329	1004.130096	-39.836912	706.656740	853.006339	-111.196796	552.120129	1003.990326	-593.073945	706.770060	850.820147	-512.542170	15.202056	1159.254347	-250.977868	148.540516	1110.822622	-474.452252	119.237053	1144.824167	-186.511498	186.924434	1077.259212	-439.114593	168.556330	1125.653733	-221.280583	17.302772	1168.124553	-305.557750	36.276782	1168.893384	-392.507733	99.452331	1084.867312	-141.175352	95.746483	1014.116078	-496.506874	184.377244	1072.982112	-136.805258	272.389691	1072.797847	-138.805128	346.583249	1041.035693	-109.260109	281.450177	1095.924933	-167.883025	480.003426	972.936640	-133.915751	479.492593	948.246546	-248.034366	464.738795	864.140388	-120.579595	440.412059	780.008475	-136.706966	381.812591	717.023454	-133.431740	454.393721	775.304491	-174.204277	308.982741	611.848624	-138.942245	323.627078	630.800758	-218.363394	479.440184	469.262979	-189.524711	375.721149	501.082019	-126.234579	402.763556	502.443341	-233.962441	188.768330	906.115800	-514.117925	247.607782	841.654787	-510.891317	277.296630	857.435538	-495.693761	264.465040	754.092561	-507.283311	311.169795	668.273083	-480.744216	308.807966	637.649848	-379.485391	283.838710	571.181134	-505.115539	280.077024	485.936362	-492.014140	231.482733	409.424415	-497.272702	297.192736	482.410146	-455.038080	189.698565	312.606320	-486.997809	201.445454	306.093250	-410.119010	114.462576	301.556739	-449.384699	343.042022	126.178894	-432.567121	247.355280	165.719667	-501.923235	-126.556429	872.258406	-307.954162	37.162390	86.803753	-514.163723	33.673277	83.234334	-114.408792	
1255	6.2750	518.852647	1261.023247	-125.767870	563.948654	1247.773114	-442.451006	527.252827	1288.696100	-289.582696	466.828853	1160.543106	-286.481014	555.157786	1003.225968	-39.195895	705.205829	853.329738	-111.509249	552.111424	1003.018549	-593.101590	706.540590	850.332306	-512.699115	15.010478	1159.305951	-251.497707	148.205145	1111.087534	-475.097563	119.154959	1145.795704	-187.054971	186.425227	1077.385532	-439.719535	168.445226	1126.750252	-221.882261	17.055794	1169.521516	-306.460096	35.934219	1169.940003	-393.279690	99.291362	1085.996266	-142.127384	95.546811	1014.393408	-497.091217	184.465077	1072.453942	-137.690518	272.579685	1070.903355	-139.533991	346.101367	1037.728976	-110.136441	281.921924	1093.889976	-168.453339	479.279292	967.538411	-135.415862	478.239096	942.756127	-248.926258	464.696845	857.852767	-121.124419	441.589876	773.288645	-137.170243	384.056692	709.446308	-133.527984	455.377609	768.889460	-174.748866	313.157608	603.250470	-138.621361	326.408684	622.516701	-218.077797	488.839917	469.838082	-189.229163	383.543277	496.216870	-125.453567	410.586792	499.147338	-233.204559	189.976738	907.393726	-513.835285	249.835024	843.779752	-510.371527	279.309629	860.136218	-495.422001	268.120508	756.566079	-506.406106	315.447710	671.124256	-480.209055	313.017645	640.739560	-378.759634	286.267924	574.421042	-504.351705	279.879489	489.411379	-491.237029	229.059681	414.257007	-496.757823	296.719435	485.316339	-454.137067	183.812840	318.705625	-486.658515	195.633852	311.547624	-409.681506	108.235382	309.014023	-448.786148	332.870812	128.809751	-432.550931	237.906212	170.382592	-501.711571	-126.497733	872.286311	-307.835711	37.178082	86.854258	-514.230610	33.668560	83.235432	-114.406018	
